<?xml version="1.0" standalone="no"?>
<!DOCTYPE svg PUBLIC "-//W3C//DTD SVG 20010904//EN"
 "http://www.w3.org/TR/2001/REC-SVG-20010904/DTD/svg10.dtd">
<svg version="1.0" xmlns="http://www.w3.org/2000/svg"
 width="260.000000pt" height="260.000000pt" viewBox="0 0 260.000000 260.000000"
 preserveAspectRatio="xMidYMid meet">
<metadata>
Created by potrace 1.11, written by Peter Selinger 2001-2013
</metadata>
<g transform="translate(0.000000,260.000000) scale(0.100000,-0.100000)"
fill="#000000" stroke="none">
<path d="M804 1703 c23 -170 25 -162 -43 -139 -22 8 -69 17 -103 20 l-63 6 76
-14 c68 -12 139 -39 139 -51 0 -18 -52 -130 -73 -157 -14 -18 -43 -77 -64
-131 -22 -54 -42 -95 -45 -92 -5 6 -127 -72 -199 -127 -20 -16 -38 -28 -41
-28 -3 0 -4 21 -2 48 4 48 0 48 -10 1 -3 -15 -24 -48 -46 -75 -22 -27 -40 -54
-40 -61 0 -7 15 -17 32 -22 31 -9 32 -9 6 -10 -15 -1 -34 6 -43 15 -9 9 -19
13 -23 9 -4 -3 2 -13 12 -21 11 -8 15 -14 9 -14 -17 0 -34 26 -27 44 3 9 11
13 17 9 6 -3 7 -1 3 6 -4 6 5 28 22 49 30 39 52 75 35 57 -25 -26 -81 -102
-87 -119 -10 -29 15 -74 49 -88 16 -7 71 -13 122 -13 88 0 93 -1 93 -21 0 -45
52 -36 70 11 6 15 23 24 63 32 150 32 292 133 349 251 29 60 32 76 33 157 0
104 -18 154 -79 220 -20 21 -35 44 -33 50 2 5 38 28 80 50 42 22 77 47 77 54
0 31 -54 91 -103 116 -37 18 -67 25 -110 25 l-60 0 7 -47z m54 25 c7 -7 12
-24 12 -38 0 -29 -24 -69 -35 -58 -11 10 -26 88 -20 99 8 13 29 11 43 -3z m-4
-176 c5 -9 -52 -138 -58 -131 -6 6 38 139 46 139 4 0 9 -4 12 -8z m107 -167
c13 -30 15 -49 9 -75 -4 -19 -8 -26 -9 -15 -1 11 -8 31 -17 43 l-15 22 -30
-20 c-34 -25 -38 -14 -15 41 7 19 16 42 20 53 5 16 9 16 23 5 9 -8 24 -32 34
-54z m-191 -27 c-1 -8 -100 -202 -100 -196 0 14 50 139 67 169 14 23 34 39 33
27z"/>
<path d="M531 1504 c-49 -62 -39 -104 31 -140 49 -25 53 -25 85 -10 30 14 33
20 34 63 2 84 -3 94 -48 99 -15 2 -40 6 -54 9 -21 5 -31 1 -48 -21z m49 -4 c0
-22 -31 -70 -45 -70 -18 0 -20 33 -3 60 13 21 48 28 48 10z m40 -22 c-1 -15
-24 -48 -34 -48 -11 0 -7 35 6 48 16 16 28 15 28 0z"/>
<path d="M390 1430 c-8 -5 -25 -7 -38 -3 -38 9 -55 -14 -47 -66 9 -60 28 -81
76 -81 48 0 65 17 72 75 10 71 -18 104 -63 75z m-50 -27 c0 -5 -5 -15 -10 -23
-8 -12 -10 -11 -10 8 0 12 5 22 10 22 6 0 10 -3 10 -7z m46 -40 c-10 -10 -19
5 -10 18 6 11 8 11 12 0 2 -7 1 -15 -2 -18z"/>
<path d="M1907 1419 c-200 -28 -326 -203 -287 -396 17 -79 39 -120 100 -181
52 -50 97 -76 302 -170 93 -43 119 -70 121 -126 2 -71 -58 -116 -155 -116 -91
0 -127 16 -191 82 l-57 59 -88 -50 c-48 -28 -93 -55 -101 -60 -11 -7 -8 -17
17 -53 93 -135 241 -208 423 -208 173 0 306 68 374 192 27 48 29 62 30 153 0
90 -3 106 -28 157 -48 98 -155 175 -360 259 -32 13 -76 38 -98 57 -34 30 -39
39 -39 77 0 63 31 96 96 102 60 5 110 -18 139 -64 11 -18 24 -32 29 -33 4 0
50 27 102 61 106 69 105 66 31 146 -86 94 -212 133 -360 112z"/>
<path d="M1160 960 c0 -388 -2 -455 -15 -481 -39 -75 -175 -63 -227 19 -13 20
-26 40 -29 45 -5 7 -167 -79 -209 -110 -2 -2 4 -19 14 -38 32 -58 107 -126
176 -159 60 -28 73 -31 175 -31 82 0 124 5 165 19 73 26 149 101 181 181 24
60 24 60 27 533 l3 472 -131 0 -130 0 0 -450z"/>
<path d="M177 1268 c-32 -30 -42 -73 -21 -90 8 -7 25 -23 36 -35 29 -31 48
-29 86 10 43 44 42 78 -1 111 -42 32 -69 33 -100 4z m15 -30 c-12 -13 -22 -17
-22 -11 0 15 31 46 38 38 3 -3 -4 -15 -16 -27z m40 -10 c-7 -7 -12 -8 -12 -2
0 14 12 26 19 19 2 -3 -1 -11 -7 -17z"/>
<path d="M105 1269 c-4 -6 -5 -12 -2 -15 2 -3 7 2 10 11 7 17 1 20 -8 4z"/>
<path d="M80 1208 c-6 -18 -14 -64 -16 -103 -5 -57 -2 -77 14 -105 27 -49 56
-50 123 -4 30 20 66 42 81 50 31 16 62 19 53 4 -3 -5 -1 -10 4 -10 16 0 13 26
-5 44 -26 26 -58 18 -135 -34 -41 -27 -82 -50 -92 -50 -37 0 -48 85 -23 180
16 62 14 77 -4 28z"/>
<path d="M434 1218 c-54 -26 -48 -102 9 -122 70 -25 120 67 61 113 -30 23 -39
24 -70 9z m84 -59 c4 -32 -23 -61 -52 -57 -29 4 -35 56 -9 75 28 21 58 12 61
-18z"/>
</g>
</svg>
